<?xml version="1.0" encoding="UTF-8"?>
<!DOCTYPE svg PUBLIC "-//W3C//DTD SVG 1.1//EN" "http://www.w3.org/Graphics/SVG/1.1/DTD/svg11.dtd">
<svg xmlns="http://www.w3.org/2000/svg" version="1.1" width="8000px" height="4500px" style="shape-rendering:geometricPrecision; text-rendering:geometricPrecision; image-rendering:optimizeQuality; fill-rule:evenodd; clip-rule:evenodd" xmlns:xlink="http://www.w3.org/1999/xlink">
<g><path style="opacity:0.999" fill="#e4e4e4" d="M 2272.5,1206.5 C 2344.13,1205.04 2414.13,1214.87 2482.5,1236C 2594.77,1275.03 2678.94,1346.86 2735,1451.5C 2766.4,1512.36 2789.06,1576.36 2803,1643.5C 2818.46,1719.06 2827.12,1795.39 2829,1872.5C 2830.31,1933.54 2829.31,1994.54 2826,2055.5C 2822.54,2085.12 2819.54,2114.79 2817,2144.5C 2810.02,2236.2 2802.69,2327.86 2795,2419.5C 2786.81,2518.01 2772.81,2615.68 2753,2712.5C 2736.46,2792.78 2711.13,2870.11 2677,2944.5C 2577.42,3148.25 2413.92,3240.41 2186.5,3221C 2071.81,3206.42 1976.98,3155.58 1902,3068.5C 1860.84,3018.59 1826.84,2963.93 1800,2904.5C 1762.9,2819.12 1734.9,2730.78 1716,2639.5C 1709.36,2608.62 1703.36,2577.62 1698,2546.5C 1685.24,2458.08 1671.91,2369.74 1658,2281.5C 1637.66,2137.97 1633.33,1993.97 1645,1849.5C 1651.84,1770.99 1666.5,1693.99 1689,1618.5C 1714.37,1533.74 1754.37,1457.07 1809,1388.5C 1889.03,1295.38 1990.19,1239.55 2112.5,1221C 2165.75,1213.44 2219.08,1208.61 2272.5,1206.5 Z"/></g>
<g><path style="opacity:0.996" fill="#000000" d="M 406.5,1450.5 C 559.5,1450.5 712.5,1450.5 865.5,1450.5C 868.273,1460.22 868.107,1469.89 865,1479.5C 837.954,1512.21 811.288,1545.21 785,1578.5C 776.914,1590.01 771.581,1602.67 769,1616.5C 768.5,2054.17 768.333,2491.83 768.5,2929.5C 938.659,2940.17 1106.33,2924.67 1271.5,2883C 1318,2871.06 1362.67,2854.39 1405.5,2833C 1417.17,2831.03 1428.84,2831.03 1440.5,2833C 1441.06,2833.72 1441.39,2834.56 1441.5,2835.5C 1423.32,2909.88 1404.99,2984.21 1386.5,3058.5C 1059.17,3059.83 731.833,3059.83 404.5,3058.5C 400.342,3047.75 400.508,3037.08 405,3026.5C 428.522,3005.73 451.855,2984.73 475,2963.5C 488.24,2948.69 497.573,2931.69 503,2912.5C 503.667,2480.17 503.667,2047.83 503,1615.5C 499.715,1600.93 493.715,1587.6 485,1575.5C 459.333,1543.83 433.667,1512.17 408,1480.5C 404.468,1470.56 403.968,1460.56 406.5,1450.5 Z"/></g>
<g><path style="opacity:0.996" fill="#000000" d="M 3137.5,1450.5 C 3460.17,1450.33 3782.83,1450.5 4105.5,1451C 4118.81,1509.23 4131.81,1567.56 4144.5,1626C 4144.25,1627.33 4143.58,1628.33 4142.5,1629C 4131.83,1631 4121.17,1631 4110.5,1629C 4040.13,1613.16 3969.8,1597.16 3899.5,1581C 3766.17,1580.5 3632.83,1580.33 3499.5,1580.5C 3499.5,1779.83 3499.5,1979.17 3499.5,2178.5C 3590.83,2178.67 3682.17,2178.5 3773.5,2178C 3803.25,2165.53 3832.92,2152.86 3862.5,2140C 3873.1,2137.29 3883.77,2136.96 3894.5,2139C 3895.83,2184.29 3896.5,2229.79 3896.5,2275.5C 3896.33,2320.83 3896.17,2366.17 3896,2411.5C 3885.6,2413.99 3875.1,2414.16 3864.5,2412C 3835.17,2394.33 3805.83,2376.67 3776.5,2359C 3684.17,2358.5 3591.83,2358.33 3499.5,2358.5C 3499.5,2548.83 3499.5,2739.17 3499.5,2929.5C 3679.39,2936.21 3857.73,2922.71 4034.5,2889C 4070.13,2881.76 4104.79,2871.43 4138.5,2858C 4149.87,2855.95 4161.21,2856.12 4172.5,2858.5C 4154.48,2925.24 4136.15,2991.91 4117.5,3058.5C 3789.93,3059.83 3462.43,3059.83 3135,3058.5C 3131.51,3047.75 3131.67,3037.09 3135.5,3026.5C 3160.7,3004.16 3185.53,2981.5 3210,2958.5C 3221.71,2944.41 3229.71,2928.41 3234,2910.5C 3234.67,2479.5 3234.67,2048.5 3234,1617.5C 3231.2,1601.57 3224.87,1587.23 3215,1574.5C 3189.33,1542.83 3163.67,1511.17 3138,1479.5C 3134.84,1469.89 3134.67,1460.22 3137.5,1450.5 Z"/></g>
<g><path style="opacity:0.996" fill="#000000" d="M 5389.5,1450.5 C 5412.5,1450.33 5435.5,1450.5 5458.5,1451C 5476.29,1451.3 5493.95,1452.8 5511.5,1455.5C 5623.35,1853.9 5735.52,2252.23 5848,2650.5C 5961.75,2299.43 6074.58,1948.1 6186.5,1596.5C 6184.23,1583.29 6178.73,1571.62 6170,1561.5C 6142.99,1534.49 6115.32,1508.16 6087,1482.5C 6083.88,1473.23 6083.72,1463.9 6086.5,1454.5C 6214.16,1453.5 6341.83,1453.17 6469.5,1453.5C 6470.97,1462.87 6470.8,1472.21 6469,1481.5C 6433.97,1515.53 6398.64,1549.2 6363,1582.5C 6352.06,1595.37 6343.39,1609.7 6337,1625.5C 6178.8,2103.76 6020.8,2582.09 5863,3060.5C 5860.71,3062.77 5857.87,3063.94 5854.5,3064C 5810.89,3067.79 5767.22,3068.46 5723.5,3066C 5714.07,3065.49 5704.74,3064.32 5695.5,3062.5C 5578.98,2660.1 5462.15,2257.77 5345,1855.5C 5209.33,2257.68 5074.16,2660.02 4939.5,3062.5C 4888.57,3066.71 4837.57,3067.54 4786.5,3065C 4780.72,3064.92 4775.22,3063.75 4770,3061.5C 4636.33,2579.17 4502.67,2096.83 4369,1614.5C 4362.99,1599.48 4355.66,1585.15 4347,1571.5C 4320.03,1541.53 4292.7,1511.87 4265,1482.5C 4261.91,1472.89 4261.74,1463.22 4264.5,1453.5C 4422.17,1453.5 4579.83,1453.5 4737.5,1453.5C 4738.97,1462.87 4738.8,1472.21 4737,1481.5C 4710.03,1510.8 4682.7,1539.8 4655,1568.5C 4648.78,1579.84 4647.11,1591.84 4650,1604.5C 4652.86,1618.27 4656.19,1631.94 4660,1645.5C 4750.37,1979.64 4841.03,2313.64 4932,2647.5C 5066.33,2250.5 5200.67,1853.5 5335,1456.5C 5340.95,1454.42 5347.12,1453.26 5353.5,1453C 5365.66,1452.21 5377.66,1451.37 5389.5,1450.5 Z"/></g>
<g><path style="opacity:0.996" fill="#000000" d="M 6575.5,1450.5 C 6898.5,1450.5 7221.5,1450.5 7544.5,1450.5C 7557.5,1509.83 7570.5,1569.17 7583.5,1628.5C 7571.88,1630.93 7560.21,1631.09 7548.5,1629C 7478.14,1613.13 7407.8,1597.13 7337.5,1581C 7204.17,1580.5 7070.83,1580.33 6937.5,1580.5C 6937.5,1779.83 6937.5,1979.17 6937.5,2178.5C 7028.83,2178.67 7120.17,2178.5 7211.5,2178C 7241.5,2165.33 7271.5,2152.67 7301.5,2140C 7312.81,2136.97 7324.14,2136.8 7335.5,2139.5C 7335.83,2230.4 7335.5,2321.24 7334.5,2412C 7323.08,2414.23 7311.74,2413.9 7300.5,2411C 7271.83,2393.67 7243.17,2376.33 7214.5,2359C 7122.17,2358.5 7029.83,2358.33 6937.5,2358.5C 6937.5,2548.83 6937.5,2739.17 6937.5,2929.5C 7086.6,2934.99 7234.93,2926.83 7382.5,2905C 7433.17,2897.87 7483.17,2887.53 7532.5,2874C 7547.39,2869.22 7562.06,2863.88 7576.5,2858C 7587.88,2855.92 7599.21,2856.09 7610.5,2858.5C 7592.88,2925.53 7574.55,2992.36 7555.5,3059C 7228.17,3059.5 6900.83,3059.67 6573.5,3059.5C 6569.41,3048.42 6569.57,3037.42 6574,3026.5C 6597.97,3005.54 6621.63,2984.2 6645,2962.5C 6657.39,2948.09 6666.39,2931.76 6672,2913.5C 6672.67,2480.17 6672.67,2046.83 6672,1613.5C 6669.18,1601.19 6664.18,1589.85 6657,1579.5C 6630.71,1546.21 6604.05,1513.21 6577,1480.5C 6575.05,1475.54 6574.22,1470.37 6574.5,1465C 6574.68,1460.15 6575.01,1455.31 6575.5,1450.5 Z"/></g>
<g><path style="opacity:1" fill="#8a7393" d="M 2507.5,1589.5 C 2517.06,1588.64 2526.06,1590.47 2534.5,1595C 2550.35,1607.85 2562.85,1623.35 2572,1641.5C 2586.97,1670.4 2597.97,1700.73 2605,1732.5C 2610.43,1759.79 2610.76,1787.12 2606,1814.5C 2604.54,1821.89 2601.38,1828.39 2596.5,1834C 2580.79,1844.89 2563.46,1848.56 2544.5,1845C 2513.39,1845.54 2493.22,1831.04 2484,1801.5C 2482.02,1792.26 2480.68,1782.92 2480,1773.5C 2477.48,1720.38 2481.15,1667.71 2491,1615.5C 2493.39,1609.71 2496.06,1604.05 2499,1598.5C 2501.02,1594.64 2503.86,1591.64 2507.5,1589.5 Z"/></g>
<g><path style="opacity:1" fill="#8a7393" d="M 1992.5,1590.5 C 2006.14,1587.41 2014.97,1592.41 2019,1605.5C 2020.33,1613.5 2021.67,1621.5 2023,1629.5C 2025.77,1690.1 2021.11,1750.1 2009,1809.5C 1995.03,1843.4 1970.2,1855.23 1934.5,1845C 1912.38,1840.19 1895.21,1828.36 1883,1809.5C 1879.04,1802.18 1877.21,1794.34 1877.5,1786C 1881.69,1727.07 1902.86,1675.24 1941,1630.5C 1951.2,1618.53 1962.37,1607.7 1974.5,1598C 1980.34,1594.78 1986.34,1592.28 1992.5,1590.5 Z"/></g>
<g><path style="opacity:1" fill="#161304" d="M 1893.5,1921.5 C 1921.82,1920 1949.49,1923.5 1976.5,1932C 1992.22,1938.36 2007.22,1946.03 2021.5,1955C 2035.34,1966.92 2038.18,1981.09 2030,1997.5C 2023.62,2007.62 2014.78,2014.78 2003.5,2019C 1965.94,2033.95 1926.94,2039.95 1886.5,2037C 1859.01,2035.98 1832.01,2031.98 1805.5,2025C 1792.32,2022.33 1781.15,2016.16 1772,2006.5C 1762.72,1989.1 1765.22,1973.6 1779.5,1960C 1800.65,1944.27 1824.32,1933.94 1850.5,1929C 1864.93,1926.26 1879.26,1923.76 1893.5,1921.5 Z"/></g>
<g><path style="opacity:1" fill="#161304" d="M 2571.5,1934.5 C 2620.21,1930.13 2664.88,1941.3 2705.5,1968C 2720.27,1983.05 2721.44,1999.22 2709,2016.5C 2700.22,2024.81 2690.05,2030.98 2678.5,2035C 2650.04,2044.89 2620.7,2050.06 2590.5,2050.5C 2556.73,2049.72 2523.4,2045.55 2490.5,2038C 2480.98,2035.5 2471.98,2031.83 2463.5,2027C 2444.9,2008.71 2444.9,1990.38 2463.5,1972C 2474.94,1962.94 2487.61,1955.94 2501.5,1951C 2524.42,1943.25 2547.75,1937.75 2571.5,1934.5 Z"/></g>
<g><path style="opacity:1" fill="#171405" d="M 1800.5,2100.5 C 1817.78,2103.77 1835.12,2106.94 1852.5,2110C 1881.03,2114.14 1909.7,2115.47 1938.5,2114C 1956.15,2112.41 1973.82,2111.41 1991.5,2111C 1998.42,2114.61 2000.25,2120.11 1997,2127.5C 1989.34,2136.76 1979.51,2142.59 1967.5,2145C 1923.08,2156.6 1878.74,2156.26 1834.5,2144C 1819.33,2140.34 1806.16,2133.17 1795,2122.5C 1790.63,2113.59 1792.46,2106.25 1800.5,2100.5 Z"/></g>
<g><path style="opacity:1" fill="#171405" d="M 2675.5,2104.5 C 2681.59,2104.14 2687.59,2104.64 2693.5,2106C 2699.56,2110.61 2701.06,2116.44 2698,2123.5C 2695.93,2128.47 2692.76,2132.64 2688.5,2136C 2679.72,2141.72 2670.39,2146.39 2660.5,2150C 2613.75,2160.79 2566.75,2162.12 2519.5,2154C 2506.63,2149.98 2495.8,2142.81 2487,2132.5C 2479.51,2117.64 2484.01,2108.8 2500.5,2106C 2503.83,2105.33 2507.17,2105.33 2510.5,2106C 2527.47,2109.93 2544.47,2113.59 2561.5,2117C 2580.89,2117.89 2600.22,2117.23 2619.5,2115C 2638.3,2111.46 2656.97,2107.96 2675.5,2104.5 Z"/></g>
<g><path style="opacity:1" fill="#8a7393" d="M 1864.5,2239.5 C 1890.57,2238.63 1916.24,2241.47 1941.5,2248C 1951.73,2249.86 1960.23,2254.7 1967,2262.5C 1968.61,2265.38 1969.94,2268.38 1971,2271.5C 1969.98,2303.8 1969.31,2336.14 1969,2368.5C 1964.54,2409.07 1963.37,2449.73 1965.5,2490.5C 1964.32,2529.49 1963.49,2568.49 1963,2607.5C 1960.84,2613.32 1956.68,2616.49 1950.5,2617C 1937.5,2619.41 1927.66,2614.91 1921,2603.5C 1915.41,2593.32 1910.08,2582.99 1905,2572.5C 1878.45,2498.51 1854.11,2423.84 1832,2348.5C 1827.6,2327.68 1824.44,2306.68 1822.5,2285.5C 1823.01,2276.08 1824.17,2266.75 1826,2257.5C 1828.5,2251 1833,2246.5 1839.5,2244C 1847.92,2242.25 1856.25,2240.75 1864.5,2239.5 Z"/></g>
<g><path style="opacity:1" fill="#8a7393" d="M 2605.5,2245.5 C 2617.92,2245.73 2630.25,2246.9 2642.5,2249C 2659.92,2254.75 2670.75,2266.59 2675,2284.5C 2675.74,2301.39 2674.08,2318.06 2670,2334.5C 2657,2381.84 2644,2429.17 2631,2476.5C 2617.47,2519.76 2600.8,2561.76 2581,2602.5C 2577.33,2608.17 2573.67,2613.83 2570,2619.5C 2563.04,2625.99 2555.88,2626.16 2548.5,2620C 2544.51,2617.01 2541.68,2613.18 2540,2608.5C 2537.53,2593.62 2536.19,2578.62 2536,2563.5C 2537.75,2497.19 2539.08,2430.85 2540,2364.5C 2541.36,2336.26 2544.69,2308.26 2550,2280.5C 2554.17,2267 2563,2258.17 2576.5,2254C 2586.22,2250.84 2595.89,2248 2605.5,2245.5 Z"/></g>
<g><path style="opacity:1" fill="#161303" d="M 2420.5,2802.5 C 2439.5,2802.33 2458.5,2802.5 2477.5,2803C 2485.61,2803.94 2493.27,2806.28 2500.5,2810C 2509.01,2817.95 2509.84,2826.78 2503,2836.5C 2486.48,2854 2466.98,2867.17 2444.5,2876C 2364.89,2907.62 2282.22,2920.95 2196.5,2916C 2152,2914.45 2108.34,2907.79 2065.5,2896C 2042.77,2889.47 2021.77,2879.47 2002.5,2866C 1991.75,2858.26 1983.59,2848.43 1978,2836.5C 1972.28,2824.11 1975.78,2815.61 1988.5,2811C 2000.37,2808.26 2012.37,2806.26 2024.5,2805C 2128,2804.7 2231.5,2804.2 2335,2803.5C 2353.84,2803.54 2372.68,2803.87 2391.5,2804.5C 2401.33,2804 2411,2803.34 2420.5,2802.5 Z"/></g>
<g><path style="opacity:1" fill="#4a4744" d="M 2159.5,2985.5 C 2211.83,2985.33 2264.17,2985.5 2316.5,2986C 2327.61,2987.36 2338.61,2989.36 2349.5,2992C 2352.78,2993.4 2354.45,2995.9 2354.5,2999.5C 2354.17,3002.32 2353.34,3004.99 2352,3007.5C 2333.89,3025.3 2312.06,3035.13 2286.5,3037C 2244.26,3041.93 2203.26,3036.93 2163.5,3022C 2159.29,3020.38 2155.29,3018.38 2151.5,3016C 2144.02,3008.35 2143.52,3000.18 2150,2991.5C 2152.84,2988.84 2156.01,2986.84 2159.5,2985.5 Z"/></g>
</svg>
